<svg width="24" height="38" viewBox="0 0 24 38" fill="none" xmlns="http://www.w3.org/2000/svg">
<path d="M21.3885 14.8765C21.3885 13.9533 20.6379 13.2048 19.7121 13.2048C18.7863 13.2048 18.0357 13.9533 18.0357 14.8765C18.0357 15.7997 18.7863 16.5482 19.7121 16.5482C20.6379 16.5482 21.3885 15.7997 21.3885 14.8765ZM23.4003 14.8765C23.4003 16.9076 21.749 18.5542 19.7121 18.5542C17.6752 18.5542 16.0239 16.9076 16.0239 14.8765C16.0239 12.8454 17.6752 11.1988 19.7121 11.1988C21.749 11.1988 23.4003 12.8454 23.4003 14.8765Z" fill="white"/>
<path d="M8.87048 33.8223C8.87048 32.8991 8.11991 32.1506 7.19403 32.1506C6.26816 32.1506 5.51759 32.8991 5.51759 33.8223C5.51759 34.7455 6.26816 35.494 7.19403 35.494C8.11991 35.494 8.87048 34.7455 8.87048 33.8223ZM10.8822 33.8223C10.8822 35.8534 9.23096 37.5 7.19403 37.5C5.15711 37.5 3.50586 35.8534 3.50586 33.8223C3.50586 31.7912 5.15711 30.1446 7.19403 30.1446C9.23096 30.1446 10.8822 31.7912 10.8822 33.8223Z" fill="white"/>
<path d="M8.2007 23.269C9.29256 22.2785 10.7435 21.6747 12.3359 21.6747H14.5712C16.3316 21.6747 17.8347 20.5777 18.4314 19.032C18.8364 19.156 19.2664 19.2229 19.7123 19.2229C19.9836 19.2229 20.2491 19.1978 20.5067 19.1506C19.8078 21.7358 17.4557 23.6447 14.6506 23.6802L14.5712 23.6807H12.3359C10.0878 23.6807 8.25862 25.4696 8.202 27.6978L8.2007 27.8042V29.5924C7.87779 29.5162 7.54104 29.4759 7.19483 29.4759C6.84862 29.4759 6.51187 29.5162 6.18896 29.5924V13.985C6.46915 14.1949 6.81743 14.3193 7.19483 14.3193C7.57223 14.3193 7.92051 14.1949 8.2007 13.985V23.269Z" fill="white"/>
<path d="M8.19997 1.50301C8.19997 5.13445 5.24773 8.07831 1.60596 8.07831C1.05044 8.07831 0.600098 7.62925 0.600098 7.0753C0.600098 6.52134 1.05044 6.07228 1.60596 6.07228C4.13669 6.07228 6.18824 4.02655 6.18824 1.50301C6.18824 0.94906 6.63858 0.499996 7.19411 0.499996C7.74964 0.499996 8.19997 0.94906 8.19997 1.50301Z" fill="url(#paint0_linear_1703_1263)"/>
<path d="M1.60596 6.07229C5.24773 6.07229 8.19997 9.01615 8.19997 12.6476C8.19997 13.2016 7.74964 13.6506 7.19411 13.6506C6.63858 13.6506 6.18824 13.2016 6.18824 12.6476C6.18824 10.124 4.13669 8.07831 1.60596 8.07831C1.05044 8.07831 0.600098 7.62925 0.600098 7.0753C0.600098 6.52135 1.05044 6.07229 1.60596 6.07229Z" fill="url(#paint1_linear_1703_1263)"/>
<path d="M6.18896 12.6476C6.18896 9.01615 9.1412 6.07229 12.783 6.07229C13.3385 6.07229 13.7888 6.52135 13.7888 7.0753C13.7888 7.62925 13.3385 8.07831 12.783 8.07831C10.2522 8.07831 8.2007 10.124 8.2007 12.6476C8.2007 13.2016 7.75036 13.6506 7.19483 13.6506C6.6393 13.6506 6.18896 13.2016 6.18896 12.6476Z" fill="url(#paint2_linear_1703_1263)"/>
<path d="M7.19483 0.499996C7.75036 0.499996 8.2007 0.94906 8.2007 1.50301L8.20223 1.62098C8.26398 4.05079 10.2279 6.00918 12.6646 6.07076L12.783 6.07229H14.5712C17.4112 6.07229 19.8011 7.99279 20.5066 10.6024C20.2491 10.5551 19.9835 10.5301 19.7123 10.5301C19.2664 10.5301 18.8364 10.5969 18.4314 10.7209C17.8347 9.17524 16.3316 8.07831 14.5712 8.07831H12.783L12.6977 8.07776C9.12362 8.03262 6.23479 5.15198 6.18951 1.58801L6.18896 1.50301C6.18896 0.94906 6.6393 0.499997 7.19483 0.499996Z" fill="url(#paint3_linear_1703_1263)"/>
<path d="M8.1999 1.50301C8.1999 3.19704 7.55612 4.74353 6.50087 5.90871L6.46518 5.94614C6.08899 6.32141 5.47965 6.34048 5.08026 5.98087C4.66797 5.60959 4.63556 4.97529 5.0079 4.56417L5.0759 4.48745C5.76972 3.68623 6.18817 2.64444 6.18817 1.50301C6.18817 0.949058 6.63851 0.499994 7.19404 0.499994C7.74957 0.499994 8.1999 0.949058 8.1999 1.50301Z" fill="url(#paint4_linear_1703_1263)"/>
<defs>
<linearGradient id="paint0_linear_1703_1263" x1="7.19411" y1="1.50301" x2="1.62184" y2="7.09113" gradientUnits="userSpaceOnUse">
<stop stop-color="#B133FF"/>
<stop offset="1" stop-color="#33DCFE"/>
</linearGradient>
<linearGradient id="paint1_linear_1703_1263" x1="1.60596" y1="7.0753" x2="7.17823" y2="12.6634" gradientUnits="userSpaceOnUse">
<stop stop-color="#33DCFE"/>
<stop offset="1" stop-color="#FFA133"/>
</linearGradient>
<linearGradient id="paint2_linear_1703_1263" x1="7.19483" y1="12.6476" x2="12.7671" y2="7.05947" gradientUnits="userSpaceOnUse">
<stop stop-color="#FFA133"/>
<stop offset="1" stop-color="#B133FF"/>
</linearGradient>
<linearGradient id="paint3_linear_1703_1263" x1="7.13895" y1="1.89307" x2="19.0191" y2="10.3391" gradientUnits="userSpaceOnUse">
<stop stop-color="#B133FF"/>
<stop offset="1" stop-color="white"/>
</linearGradient>
<linearGradient id="paint4_linear_1703_1263" x1="7.19404" y1="1.50301" x2="1.62177" y2="7.09113" gradientUnits="userSpaceOnUse">
<stop stop-color="#B133FF"/>
<stop offset="1" stop-color="#33DCFE"/>
</linearGradient>
</defs>
</svg>
