<svg width="198" height="71" viewBox="0 0 198 71" fill="none" xmlns="http://www.w3.org/2000/svg">
<g clip-path="url(#clip0_1274_359)">
<path d="M62.1716 51.435V26.3068H65.2687V30.2511L64.8603 29.4691C65.541 28.381 66.4713 27.5196 67.6511 26.8848C68.831 26.2274 70.181 25.8987 71.7013 25.8987C73.4257 25.8987 74.9686 26.3181 76.33 27.1569C77.714 27.9956 78.8031 29.1404 79.5973 30.5912C80.3914 32.0193 80.7885 33.6514 80.7885 35.4876C80.7885 37.2784 80.3914 38.8992 79.5973 40.35C78.8031 41.8008 77.714 42.9456 76.33 43.7843C74.9686 44.6231 73.4143 45.0424 71.6672 45.0424C70.1924 45.0424 68.8424 44.7137 67.6171 44.0564C66.4145 43.399 65.4843 42.4695 64.8263 41.2681L65.3368 40.7241V51.435H62.1716ZM71.429 41.9822C72.5862 41.9822 73.6185 41.6988 74.5261 41.1321C75.4337 40.5654 76.1371 39.7946 76.6363 38.8199C77.1581 37.8225 77.4191 36.7117 77.4191 35.4876C77.4191 34.2181 77.1581 33.1074 76.6363 32.1553C76.1371 31.1805 75.4337 30.4098 74.5261 29.8431C73.6185 29.2537 72.5862 28.959 71.429 28.959C70.2718 28.959 69.2281 29.2424 68.2978 29.8091C67.3902 30.3758 66.6641 31.1579 66.1196 32.1553C65.5977 33.1301 65.3368 34.2408 65.3368 35.4876C65.3368 36.7117 65.5977 37.8225 66.1196 38.8199C66.6641 39.7946 67.3902 40.5654 68.2978 41.1321C69.2281 41.6988 70.2718 41.9822 71.429 41.9822Z" fill="white"/>
<path d="M91.4396 45.0424C90.1236 45.0424 88.9324 44.7364 87.866 44.1244C86.8222 43.5123 86.0054 42.6622 85.4155 41.5741C84.8482 40.4634 84.5646 39.1939 84.5646 37.7658V26.3068H87.7298V37.4258C87.7298 38.3325 87.9113 39.1259 88.2744 39.806C88.6601 40.486 89.182 41.0187 89.84 41.4041C90.5207 41.7895 91.2921 41.9822 92.1543 41.9822C93.0165 41.9822 93.7766 41.7895 94.4346 41.4041C95.1153 41.0187 95.6372 40.4634 96.0002 39.738C96.386 39.0126 96.5788 38.1512 96.5788 37.1537V26.3068H99.7781V44.6344H96.6809V41.0641L97.1914 41.3701C96.7603 42.5262 96.0229 43.433 94.9792 44.0904C93.9582 44.7251 92.7783 45.0424 91.4396 45.0424Z" fill="white"/>
<path d="M104.682 44.6344V18.8941H107.847V44.6344H104.682Z" fill="white"/>
<path d="M112.758 44.6344V18.8941H115.923V44.6344H112.758Z" fill="white"/>
<path d="M127.403 45.0424C125.566 45.0424 123.966 44.5891 122.605 43.6823C121.243 42.7756 120.279 41.5515 119.712 40.01L122.23 38.7859C122.752 39.874 123.467 40.7354 124.374 41.3701C125.282 42.0048 126.292 42.3222 127.403 42.3222C128.402 42.3222 129.23 42.0842 129.888 41.6081C130.546 41.1321 130.875 40.5087 130.875 39.738C130.875 39.1939 130.716 38.7632 130.399 38.4459C130.104 38.1058 129.741 37.8451 129.309 37.6638C128.878 37.4598 128.481 37.3124 128.118 37.2217L125.361 36.4397C123.705 35.9636 122.491 35.2836 121.72 34.3995C120.971 33.5154 120.597 32.484 120.597 31.3052C120.597 30.2171 120.869 29.2764 121.413 28.483C121.981 27.6669 122.741 27.0322 123.694 26.5788C124.669 26.1254 125.758 25.8987 126.961 25.8987C128.572 25.8987 130.013 26.3068 131.283 27.1229C132.577 27.9389 133.496 29.0837 134.04 30.5572L131.454 31.7473C131.045 30.7952 130.433 30.0471 129.616 29.5031C128.799 28.9363 127.88 28.653 126.859 28.653C125.929 28.653 125.191 28.891 124.647 29.3671C124.102 29.8204 123.83 30.3985 123.83 31.1012C123.83 31.6226 123.966 32.0533 124.238 32.3933C124.511 32.7107 124.84 32.96 125.225 33.1414C125.611 33.3001 125.985 33.4361 126.348 33.5494L129.343 34.4335C130.841 34.8642 131.998 35.5329 132.815 36.4397C133.654 37.3464 134.074 38.4345 134.074 39.704C134.074 40.7241 133.791 41.6421 133.223 42.4582C132.656 43.2743 131.873 43.909 130.875 44.3624C129.877 44.8158 128.719 45.0424 127.403 45.0424Z" fill="white"/>
<path d="M138.218 44.6344V26.3068H141.383V44.6344H138.218Z" fill="white"/>
<path d="M155.041 52.1151C153.748 52.1151 152.545 51.911 151.433 51.503C150.344 51.095 149.403 50.5283 148.609 49.8029C147.837 49.1001 147.247 48.2727 146.839 47.3206L149.8 45.9605C150.117 46.8219 150.719 47.5473 151.604 48.1367C152.511 48.7488 153.646 49.0548 155.007 49.0548C156.051 49.0548 156.992 48.8508 157.832 48.4427C158.694 48.0574 159.375 47.468 159.874 46.6746C160.373 45.9039 160.623 44.9631 160.623 43.8523V39.738L161.201 40.35C160.566 41.5968 159.647 42.5489 158.445 43.2063C157.265 43.8637 155.96 44.1924 154.531 44.1924C152.806 44.1924 151.263 43.7957 149.902 43.0023C148.54 42.1862 147.474 41.0868 146.703 39.704C145.931 38.2985 145.545 36.7457 145.545 35.0456C145.545 33.3227 145.931 31.7699 146.703 30.3871C147.474 29.0044 148.529 27.9163 149.868 27.1229C151.229 26.3068 152.772 25.8987 154.496 25.8987C155.926 25.8987 157.219 26.2274 158.376 26.8848C159.556 27.5196 160.498 28.4036 161.201 29.5371L160.725 30.3871V26.3068H163.822V43.8523C163.822 45.4391 163.448 46.8559 162.699 48.1027C161.95 49.3495 160.906 50.3242 159.568 51.027C158.252 51.7524 156.743 52.1151 155.041 52.1151ZM154.803 41.1321C155.892 41.1321 156.868 40.8601 157.73 40.316C158.615 39.772 159.318 39.0466 159.84 38.1398C160.362 37.2104 160.623 36.179 160.623 35.0456C160.623 33.9348 160.362 32.9147 159.84 31.9853C159.318 31.0559 158.615 30.3191 157.73 29.7751C156.868 29.231 155.892 28.959 154.803 28.959C153.691 28.959 152.681 29.231 151.774 29.7751C150.866 30.3191 150.151 31.0559 149.63 31.9853C149.13 32.892 148.881 33.9121 148.881 35.0456C148.881 36.179 149.13 37.2104 149.63 38.1398C150.151 39.0466 150.855 39.772 151.74 40.316C152.647 40.8601 153.668 41.1321 154.803 41.1321Z" fill="white"/>
<path d="M168.729 44.6344V18.8941H171.894V29.8771L171.316 29.5711C171.77 28.415 172.496 27.5196 173.494 26.8848C174.515 26.2274 175.706 25.8987 177.068 25.8987C178.384 25.8987 179.552 26.1934 180.573 26.7828C181.617 27.3722 182.434 28.1883 183.024 29.231C183.636 30.2738 183.943 31.4526 183.943 32.7674V44.6344H180.743V33.7875C180.743 32.7674 180.551 31.906 180.165 31.2032C179.802 30.5005 179.291 29.9564 178.633 29.5711C177.975 29.163 177.215 28.959 176.353 28.959C175.513 28.959 174.753 29.163 174.073 29.5711C173.392 29.9564 172.859 30.5118 172.473 31.2372C172.087 31.94 171.894 32.79 171.894 33.7875V44.6344H168.729Z" fill="white"/>
<path d="M195.925 44.8384C194.133 44.8384 192.749 44.3284 191.773 43.3083C190.82 42.2882 190.344 40.8487 190.344 38.9899V29.3331H187.008V26.3068H187.689C188.506 26.3068 189.153 26.0574 189.629 25.5587C190.106 25.06 190.344 24.4026 190.344 23.5865V22.0904H193.509V26.3068H197.627V29.3331H193.509V38.8879C193.509 39.5 193.6 40.0327 193.781 40.486C193.985 40.9394 194.314 41.3021 194.768 41.5741C195.222 41.8235 195.823 41.9482 196.572 41.9482C196.731 41.9482 196.924 41.9368 197.151 41.9142C197.4 41.8915 197.627 41.8688 197.831 41.8462V44.6344C197.536 44.7024 197.207 44.7478 196.844 44.7704C196.481 44.8158 196.175 44.8384 195.925 44.8384Z" fill="white"/>
<path d="M137.851 21.7519C137.851 20.6889 138.713 19.8272 139.777 19.8272C140.841 19.8272 141.704 20.6889 141.704 21.7519C141.704 22.8149 140.841 23.6766 139.777 23.6766C138.713 23.6766 137.851 22.8149 137.851 21.7519Z" fill="white"/>
<path d="M39.8141 27.5873C39.8141 25.8158 38.3765 24.3795 36.6032 24.3795C34.83 24.3795 33.3924 25.8158 33.3924 27.5873C33.3924 29.3589 34.83 30.7952 36.6032 30.7952C38.3765 30.7952 39.8141 29.3589 39.8141 27.5873ZM43.667 27.5873C43.667 31.4849 40.5044 34.6446 36.6032 34.6446C32.7021 34.6446 29.5395 31.4849 29.5395 27.5873C29.5395 23.6898 32.7021 20.5301 36.6032 20.5301C40.5044 20.5301 43.667 23.6898 43.667 27.5873Z" fill="white"/>
<path d="M15.84 63.9428C15.84 62.1712 14.4025 60.7349 12.6292 60.7349C10.8559 60.7349 9.41837 62.1712 9.41837 63.9428C9.41837 65.7144 10.8559 67.1506 12.6292 67.1506C14.4025 67.1506 15.84 65.7144 15.84 63.9428ZM19.693 63.9428C19.693 67.8403 16.5304 71 12.6292 71C8.72796 71 5.5654 67.8403 5.5654 63.9428C5.5654 60.0453 8.72796 56.8855 12.6292 56.8855C16.5304 56.8855 19.693 60.0453 19.693 63.9428Z" fill="white"/>
<path d="M14.5557 43.6919C16.6469 41.7912 19.4258 40.6325 22.4757 40.6325H26.7568C30.1283 40.6325 33.0071 38.5275 34.15 35.5614C34.9257 35.7994 35.7494 35.9277 36.6032 35.9277C37.123 35.9277 37.6313 35.8796 38.1247 35.7889C36.7863 40.7497 32.2813 44.4128 26.9089 44.4808L26.7568 44.4819H22.4757C18.1699 44.4819 14.6666 47.9147 14.5582 52.1903L14.5557 52.3946V55.8259C13.9372 55.6798 13.2923 55.6024 12.6292 55.6024C11.9661 55.6024 11.3211 55.6798 10.7027 55.8259V25.8767C11.2393 26.2794 11.9064 26.5181 12.6292 26.5181C13.352 26.5181 14.019 26.2794 14.5557 25.8767V43.6919Z" fill="white"/>
<path d="M14.5557 1.9247C14.5557 8.89314 8.90139 14.5422 1.92649 14.5422C0.862518 14.5422 -9.3015e-08 13.6805 0 12.6175C9.30161e-08 11.5545 0.862518 10.6928 1.92649 10.6928C6.77346 10.6928 10.7027 6.76718 10.7027 1.9247C10.7027 0.861718 11.5652 -9.29298e-08 12.6292 0C13.6932 9.29288e-08 14.5557 0.861718 14.5557 1.9247Z" fill="url(#paint0_linear_1274_359)"/>
<path d="M1.92649 10.6928C8.90139 10.6928 14.5557 16.3418 14.5557 23.3102C14.5557 24.3733 13.6932 25.2349 12.6292 25.2349C11.5652 25.2349 10.7027 24.3733 10.7027 23.3102C10.7027 18.4678 6.77346 14.5422 1.92649 14.5422C0.862518 14.5422 0 13.6805 0 12.6175C0 11.5545 0.862518 10.6928 1.92649 10.6928Z" fill="url(#paint1_linear_1274_359)"/>
<path d="M10.7027 23.3102C10.7027 16.3418 16.357 10.6928 23.3319 10.6928C24.3959 10.6928 25.2584 11.5545 25.2584 12.6175C25.2584 13.6805 24.3959 14.5422 23.3319 14.5422C18.4849 14.5422 14.5557 18.4678 14.5557 23.3102C14.5557 24.3733 13.6932 25.2349 12.6292 25.2349C11.5652 25.2349 10.7027 24.3733 10.7027 23.3102Z" fill="url(#paint2_linear_1274_359)"/>
<path d="M12.6292 0C13.6932 8.02529e-08 14.5557 0.861718 14.5557 1.9247L14.5586 2.15109C14.6769 6.81369 18.4384 10.5717 23.1052 10.6898L23.3319 10.6928H26.7568C32.1961 10.6928 36.7734 14.3781 38.1245 19.3857C37.6313 19.2949 37.1227 19.247 36.6032 19.247C35.7494 19.247 34.9257 19.3752 34.15 19.6131C33.0071 16.6471 30.1283 14.5422 26.7568 14.5422H23.3319L23.1686 14.5411C16.3233 14.4545 10.7905 8.92678 10.7037 2.08781L10.7027 1.9247C10.7027 0.861718 11.5652 8.92459e-07 12.6292 0Z" fill="url(#paint3_linear_1274_359)"/>
<path d="M14.5557 1.9247C14.5557 5.17541 13.3227 8.143 11.3016 10.3789L11.2332 10.4507C10.5128 11.1708 9.34571 11.2074 8.58076 10.5173C7.79114 9.80489 7.72906 8.58773 8.44218 7.79882L8.57242 7.6516C9.90126 6.11413 10.7027 4.11501 10.7027 1.9247C10.7027 0.861717 11.5652 -9.29202e-08 12.6292 0C13.6932 9.29416e-08 14.5557 0.861717 14.5557 1.9247Z" fill="url(#paint4_linear_1274_359)"/>
</g>
<defs>
<linearGradient id="paint0_linear_1274_359" x1="12.6292" y1="1.9247" x2="1.93642" y2="12.6274" gradientUnits="userSpaceOnUse">
<stop stop-color="#B133FF"/>
<stop offset="1" stop-color="#33DCFE"/>
</linearGradient>
<linearGradient id="paint1_linear_1274_359" x1="1.92649" y1="12.6175" x2="12.6193" y2="23.3202" gradientUnits="userSpaceOnUse">
<stop stop-color="#33DCFE"/>
<stop offset="1" stop-color="#FFA133"/>
</linearGradient>
<linearGradient id="paint2_linear_1274_359" x1="12.6292" y1="23.3102" x2="23.322" y2="12.6075" gradientUnits="userSpaceOnUse">
<stop stop-color="#FFA133"/>
<stop offset="1" stop-color="#B133FF"/>
</linearGradient>
<linearGradient id="paint3_linear_1274_359" x1="12.5222" y1="2.67319" x2="35.3048" y2="18.8392" gradientUnits="userSpaceOnUse">
<stop stop-color="#B133FF"/>
<stop offset="1" stop-color="white"/>
</linearGradient>
<linearGradient id="paint4_linear_1274_359" x1="12.6292" y1="1.9247" x2="1.93642" y2="12.6274" gradientUnits="userSpaceOnUse">
<stop stop-color="#B133FF"/>
<stop offset="1" stop-color="#33DCFE"/>
</linearGradient>
<clipPath id="clip0_1274_359">
<rect width="198" height="71" fill="white"/>
</clipPath>
</defs>
</svg>
