<svg width="26" height="32" viewBox="0 0 26 32" fill="none" xmlns="http://www.w3.org/2000/svg">
<g clip-path="url(#clip0_1766_1716)">
<path fill-rule="evenodd" clip-rule="evenodd" d="M5.68299 12.2682H23.4055C23.844 12.2696 24.2642 12.4448 24.5743 12.7556C24.8843 13.0664 25.0592 13.4875 25.0605 13.927V15.9531H0.333252V13.927C0.334622 13.4875 0.509435 13.0664 0.819524 12.7556C1.12961 12.4448 1.54979 12.2696 1.98832 12.2682H5.68299ZM25.0605 17.4192V30.3385C25.0598 30.7785 24.8853 31.2003 24.5752 31.5116C24.265 31.823 23.8444 31.9986 23.4055 32H1.98832C1.54934 31.9986 1.12877 31.823 0.818609 31.5116C0.508447 31.2003 0.333937 30.7785 0.333252 30.3385L0.333252 17.4192H25.0605ZM3.46411 27.414L3.78369 25.5338C4.39765 25.6978 5.02947 25.7853 5.6648 25.7942C6.11526 25.7996 6.56561 25.777 7.01328 25.7265V25.1588L5.98958 25.0677C5.06461 24.9843 4.42978 24.7621 4.08508 24.401C3.74039 24.0399 3.56717 23.506 3.56544 22.7994C3.56544 21.8272 3.7759 21.1588 4.19681 20.7942C4.61772 20.4296 5.33223 20.2474 6.34034 20.2474C7.25749 20.2385 8.17269 20.3337 9.06847 20.5312L8.78267 22.3541C8.22314 22.2543 7.6568 22.1977 7.08863 22.1849C6.72835 22.1808 6.3682 22.2 6.01037 22.2421V22.7994L6.8288 22.8802C7.82133 22.9791 8.50726 23.2161 8.8866 23.5911C9.08228 23.7992 9.23364 24.0451 9.33146 24.3137C9.42929 24.5823 9.47153 24.8681 9.45561 25.1536C9.46657 25.5667 9.40048 25.9783 9.26074 26.3671C9.16283 26.648 9.00601 26.9047 8.80086 27.1197C8.58472 27.3108 8.3251 27.4459 8.04477 27.513C7.76491 27.5952 7.47777 27.6502 7.18736 27.677C6.94053 27.6979 6.61315 27.7057 6.20263 27.7057C5.28058 27.7126 4.3608 27.613 3.46151 27.4088L3.46411 27.414ZM10.2818 27.414L10.5988 25.5338C11.2128 25.6976 11.8446 25.7851 12.4799 25.7942C12.9304 25.7996 13.3807 25.777 13.8284 25.7265V25.1588L12.8047 25.0677C11.8797 24.9843 11.2449 24.7621 10.9002 24.401C10.5573 24.0416 10.3806 23.5078 10.3806 22.7994C10.3806 21.8272 10.591 21.1588 11.0119 20.7942C11.4329 20.4296 12.1474 20.2474 13.1555 20.2474C14.0726 20.2385 14.9878 20.3337 15.8836 20.5312L15.6004 22.3541C15.0409 22.2537 14.4746 22.1963 13.9064 22.1822C13.5452 22.1782 13.1842 22.1974 12.8255 22.2395V22.7968L13.6439 22.8776C14.6365 22.9765 15.3224 23.2135 15.7017 23.5885C15.8974 23.7966 16.0488 24.0425 16.1466 24.3111C16.2444 24.5797 16.2867 24.8655 16.2707 25.151C16.2817 25.5641 16.2156 25.9757 16.0759 26.3645C15.9791 26.646 15.8221 26.9028 15.616 27.1171C15.4006 27.3093 15.1407 27.4445 14.8599 27.5104C14.5802 27.5931 14.293 27.648 14.0025 27.6744C13.7557 27.6953 13.4283 27.7031 13.0178 27.7031C12.0966 27.71 11.1777 27.6104 10.2792 27.4062L10.2818 27.414ZM21.9297 27.5416H17.3802V20.4192H19.6562V25.7161H21.9297V27.539V27.5416Z" fill="#22C55E"/>
<path fill-rule="evenodd" clip-rule="evenodd" d="M19.7107 12.2689V10.5423C19.7196 8.58907 18.9748 6.70801 17.6322 5.2923C17.0001 4.61417 16.2358 4.07349 15.3866 3.70382C14.5374 3.33416 13.6214 3.14341 12.6955 3.14341C11.7697 3.14341 10.8537 3.33416 10.0045 3.70382C9.15527 4.07349 8.39093 4.61417 7.75892 5.2923C6.41626 6.70801 5.67151 8.58907 5.68034 10.5423V12.2689H2.54688V10.5423C2.54326 7.77979 3.60444 5.12265 5.50886 3.12564C6.43056 2.14072 7.54396 1.35569 8.78027 0.819031C10.0166 0.282374 11.3496 0.00549316 12.6968 0.00549316C14.0441 0.00549316 15.3771 0.282374 16.6134 0.819031C17.8497 1.35569 18.9631 2.14072 19.8848 3.12564C21.7909 5.12365 22.8523 7.7831 22.8468 10.5475V12.2741L19.7107 12.2689Z" fill="#52525B"/>
</g>
<defs>
<clipPath id="clip0_1766_1716">
<rect width="24.7273" height="32" fill="white" transform="translate(0.333252)"/>
</clipPath>
</defs>
</svg>
