<svg width="219" height="335" viewBox="0 0 219 335" fill="none" xmlns="http://www.w3.org/2000/svg">
<g clip-path="url(#clip0_1271_1837)">
<path d="M253.578 -68.4116C253.578 52.5364 155.529 150.584 34.5789 150.584C15.4814 150.584 -6.27046e-05 135.103 -6.10352e-05 116.006C-5.93657e-05 96.9089 15.4814 81.4277 34.5789 81.4277C117.334 81.4277 184.421 14.3423 184.421 -68.4116C184.421 -87.5084 199.902 -102.99 218.999 -102.99C238.097 -102.99 253.578 -87.5084 253.578 -68.4116Z" fill="url(#paint0_linear_1271_1837)"/>
<path d="M34.5789 81.4273C155.529 81.4273 253.578 179.474 253.578 300.423C253.578 319.519 238.097 335 218.999 335C199.902 335 184.421 319.519 184.421 300.423C184.421 217.669 117.334 150.584 34.5789 150.584C15.4814 150.584 -6.10352e-05 135.103 -6.10352e-05 116.006C-6.10352e-05 96.9085 15.4814 81.4276 34.5789 81.4273Z" fill="url(#paint1_linear_1271_1837)"/>
<path d="M184.421 300.423C184.421 179.477 282.471 81.429 403.42 81.429C422.517 81.429 438 96.9102 438 116.007C438 135.104 422.517 150.586 403.42 150.586C320.666 150.586 253.578 217.672 253.578 300.423C253.578 319.522 238.097 335.003 218.999 335.003C199.902 335.003 184.421 319.522 184.421 300.423Z" fill="url(#paint2_linear_1271_1837)"/>
<path d="M403.508 81.4173C422.604 81.4173 438.085 96.8985 438.085 115.996C438.085 135.093 422.604 150.574 403.508 150.574C282.556 150.574 184.508 52.526 184.508 -68.4217C184.508 -87.5188 199.989 -103 219.086 -103C238.184 -103 253.665 -87.5188 253.665 -68.4217C253.665 14.3322 320.751 81.4173 403.508 81.4173Z" fill="url(#paint3_linear_1271_1837)"/>
<path d="M253.578 -68.4217C253.578 -12.0015 232.186 39.5043 197.14 78.3105C184.341 92.4836 162.484 93.6087 148.311 80.8094C134.138 68.0103 133.036 46.1541 145.834 31.9813C169.85 5.38855 184.421 -29.7826 184.421 -68.4217C184.425 -87.5151 199.905 -103 218.999 -103C238.094 -103 253.574 -87.5151 253.578 -68.4217Z" fill="url(#paint4_linear_1271_1837)"/>
</g>
<defs>
<linearGradient id="paint0_linear_1271_1837" x1="218.999" y1="-68.4113" x2="34.5822" y2="116.009" gradientUnits="userSpaceOnUse">
<stop stop-color="#B133FF"/>
<stop offset="1" stop-color="#33DCFE"/>
</linearGradient>
<linearGradient id="paint1_linear_1271_1837" x1="34.5789" y1="116.006" x2="218.996" y2="300.426" gradientUnits="userSpaceOnUse">
<stop stop-color="#33DCFE"/>
<stop offset="1" stop-color="#FFA133"/>
</linearGradient>
<linearGradient id="paint2_linear_1271_1837" x1="218.999" y1="300.423" x2="403.418" y2="116.004" gradientUnits="userSpaceOnUse">
<stop stop-color="#FFA133"/>
<stop offset="1" stop-color="#B133FF"/>
</linearGradient>
<linearGradient id="paint3_linear_1271_1837" x1="219.087" y1="-68.4217" x2="403.505" y2="115.999" gradientUnits="userSpaceOnUse">
<stop stop-color="#B133FF"/>
<stop offset="1" stop-color="#D897FF"/>
</linearGradient>
<linearGradient id="paint4_linear_1271_1837" x1="218.999" y1="-68.4136" x2="34.5822" y2="116.007" gradientUnits="userSpaceOnUse">
<stop stop-color="#B133FF"/>
<stop offset="1" stop-color="#33DCFE"/>
</linearGradient>
<clipPath id="clip0_1271_1837">
<rect width="438" height="438" fill="white" transform="translate(0 -103)"/>
</clipPath>
</defs>
</svg>
