<svg width="400" height="492" viewBox="0 0 400 492" fill="none" xmlns="http://www.w3.org/2000/svg">
<g clip-path="url(#clip0_1280_250)">
<path d="M63.1567 63.1752C63.1567 284.085 -115.929 463.167 -336.842 463.167C-371.723 463.167 -400 434.891 -400 400.011C-400 365.13 -371.723 336.854 -336.842 336.854C-185.691 336.854 -63.1587 214.324 -63.1587 63.1752C-63.1587 28.2951 -34.882 0.0188568 -0.00100708 0.0188599C34.88 0.0188629 63.1567 28.2951 63.1567 63.1752Z" fill="url(#paint0_linear_1280_250)"/>
<path d="M-336.842 336.854C-115.929 336.854 63.1567 515.934 63.1567 736.846C63.1567 771.725 34.88 800 -0.000976562 800C-34.882 800 -63.1587 771.725 -63.1587 736.846C-63.1587 585.697 -185.691 463.167 -336.842 463.167C-371.723 463.167 -400 434.891 -400 400.01C-400 365.13 -371.723 336.854 -336.842 336.854Z" fill="url(#paint1_linear_1280_250)"/>
<path d="M-63.1587 736.846C-63.1587 515.939 115.929 336.857 336.841 336.857C371.72 336.857 400 365.133 400 400.013C400 434.894 371.72 463.17 336.841 463.17C185.692 463.17 63.1567 585.702 63.1567 736.846C63.1567 771.73 34.88 800.005 -0.00102615 800.005C-34.882 800.005 -63.1587 771.73 -63.1587 736.846Z" fill="url(#paint2_linear_1280_250)"/>
<path d="M337 336.835C371.879 336.835 400.155 365.111 400.155 399.992C400.155 434.872 371.879 463.149 337 463.149C116.083 463.149 -63 284.066 -63 63.1568C-63 28.2762 -34.7233 4.96815e-05 0.157738 0C35.0387 4.63694e-06 63.3154 28.2762 63.3154 63.1568C63.3154 214.305 185.846 336.835 337 336.835Z" fill="url(#paint3_linear_1280_250)"/>
<path d="M63.1567 63.1567C63.1567 166.207 24.0836 260.282 -39.9266 331.161C-63.305 357.048 -103.225 359.103 -129.112 335.725C-154.999 312.348 -157.012 272.428 -133.636 246.541C-89.7712 197.97 -63.1587 133.73 -63.1587 63.1567C-63.1506 28.2829 -34.8769 -6.40843e-05 -0.00100708 -6.10352e-05C34.8754 -5.79865e-05 63.149 28.2829 63.1567 63.1567Z" fill="url(#paint4_linear_1280_250)"/>
</g>
<defs>
<linearGradient id="paint0_linear_1280_250" x1="-0.00102431" y1="63.1757" x2="-336.836" y2="400.017" gradientUnits="userSpaceOnUse">
<stop stop-color="#B133FF"/>
<stop offset="1" stop-color="#33DCFE"/>
</linearGradient>
<linearGradient id="paint1_linear_1280_250" x1="-336.842" y1="400.01" x2="-0.00710164" y2="736.851" gradientUnits="userSpaceOnUse">
<stop stop-color="#33DCFE"/>
<stop offset="1" stop-color="#FFA133"/>
</linearGradient>
<linearGradient id="paint2_linear_1280_250" x1="-0.00103067" y1="736.846" x2="336.836" y2="400.007" gradientUnits="userSpaceOnUse">
<stop stop-color="#FFA133"/>
<stop offset="1" stop-color="#B133FF"/>
</linearGradient>
<linearGradient id="paint3_linear_1280_250" x1="0.158723" y1="63.1568" x2="336.995" y2="399.998" gradientUnits="userSpaceOnUse">
<stop stop-color="#B133FF"/>
<stop offset="1" stop-color="#D897FF"/>
</linearGradient>
<linearGradient id="paint4_linear_1280_250" x1="-0.00101296" y1="63.1715" x2="-336.836" y2="400.013" gradientUnits="userSpaceOnUse">
<stop stop-color="#B133FF"/>
<stop offset="1" stop-color="#33DCFE"/>
</linearGradient>
<clipPath id="clip0_1280_250">
<rect width="800" height="800" fill="white" transform="translate(-400)"/>
</clipPath>
</defs>
</svg>
