<svg width="48" height="49" viewBox="0 0 48 49" fill="none" xmlns="http://www.w3.org/2000/svg">
<path d="M24 3C22.3125 3.0625 20.9062 3.65625 19.7812 4.78125C18.6562 5.90625 18.0625 7.3125 18 9H30C29.9375 7.3125 29.3438 5.90625 28.2188 4.78125C27.0938 3.65625 25.6875 3.0625 24 3ZM15 9C15.0625 6.4375 15.9375 4.3125 17.625 2.625C19.3125 0.9375 21.4375 0.0625 24 0C26.5625 0.0625 28.6875 0.9375 30.375 2.625C32.0625 4.3125 32.9375 6.4375 33 9V9.375C33 10.125 32.75 10.75 32.25 11.25C31.75 11.75 31.125 12 30.375 12H17.7188C16.9062 12 16.25 11.75 15.75 11.25C15.25 10.75 15 10.125 15 9.375V9ZM3.46875 9.46875C4.15625 8.84375 4.84375 8.84375 5.53125 9.46875L13.0312 16.875C14.6562 15.6875 16.5625 15.0625 18.75 15H29.25C31.4375 15.0625 33.3438 15.6875 34.9688 16.875L42.4688 9.46875C43.1562 8.84375 43.8438 8.84375 44.5312 9.46875C45.1562 10.1562 45.1562 10.8438 44.5312 11.5312L37.125 19.0312C38.3125 20.6562 38.9375 22.5625 39 24.75V25.5H46.5C47.4375 25.5625 47.9375 26.0625 48 27C47.9375 27.9375 47.4375 28.4375 46.5 28.5H39V30C38.9375 32.875 38.2188 35.4688 36.8438 37.7812L44.5312 45.4688C45.1562 46.1562 45.1562 46.8438 44.5312 47.5312C43.8438 48.1562 43.1562 48.1562 42.4688 47.5312L35.0625 40.125C32.1875 43.25 28.5 44.875 24 45C19.5 44.875 15.8125 43.25 12.9375 40.125L5.53125 47.5312C4.84375 48.1562 4.15625 48.1562 3.46875 47.5312C2.84375 46.8438 2.84375 46.1562 3.46875 45.4688L11.1562 37.7812C9.78125 35.4688 9.0625 32.875 9 30V28.5H1.5C0.5625 28.4375 0.0625 27.9375 0 27C0.0625 26.0625 0.5625 25.5625 1.5 25.5H9V24.75C9.0625 22.5625 9.6875 20.6562 10.875 19.0312L3.46875 11.5312C2.84375 10.8438 2.84375 10.1562 3.46875 9.46875ZM12 30C12.0625 33.125 13.0625 35.7812 15 37.9688C17 40.1562 19.5 41.4688 22.5 41.9062V24C22.5625 23.0625 23.0625 22.5625 24 22.5C24.9375 22.5625 25.4375 23.0625 25.5 24V41.9062C28.5 41.4688 31 40.1562 33 37.9688C34.9375 35.7812 35.9375 33.125 36 30V27V24.75C35.9375 22.8125 35.2812 21.2188 34.0312 19.9688C32.7812 18.7188 31.1875 18.0625 29.25 18H18.75C16.8125 18.0625 15.2188 18.7188 13.9688 19.9688C12.7188 21.2188 12.0625 22.8125 12 24.75V27V30Z" fill="#FAFAFA"/>
</svg>
