<svg width="40" height="48" viewBox="0 0 40 48" fill="none" xmlns="http://www.w3.org/2000/svg">
<path d="M11 1.5C11.0625 0.5625 11.5625 0.0625 12.5 0H27.5C28.4375 0.0625 28.9375 0.5625 29 1.5C28.9375 2.4375 28.4375 2.9375 27.5 3H21.5V9.09375C26.25 9.53125 30.25 11.3125 33.5 14.4375L36.9688 10.9688C37.6562 10.3437 38.3438 10.3437 39.0312 10.9688C39.6562 11.6562 39.6562 12.3438 39.0312 13.0312L35.4688 16.5938C38.0938 19.9688 39.4375 23.9375 39.5 28.5C39.375 34 37.4688 38.5938 33.7812 42.2812C30.0938 45.9688 25.5 47.875 20 48C14.5 47.875 9.90625 45.9688 6.21875 42.2812C2.53125 38.5938 0.625 34 0.5 28.5C0.625 23.25 2.375 18.8125 5.75 15.1875C9.125 11.625 13.375 9.59375 18.5 9.09375V3H12.5C11.5625 2.9375 11.0625 2.4375 11 1.5ZM3.5 28.5C3.5 31.5 4.25 34.25 5.75 36.75C7.1875 39.25 9.1875 41.25 11.75 42.75C14.375 44.25 17.125 45 20 45C22.875 45 25.625 44.25 28.25 42.75C30.8125 41.25 32.8125 39.25 34.25 36.75C35.75 34.25 36.5 31.5 36.5 28.5C36.5 25.5 35.75 22.75 34.25 20.25C32.8125 17.75 30.8125 15.75 28.25 14.25C25.625 12.75 22.875 12 20 12C17.125 12 14.375 12.75 11.75 14.25C9.1875 15.75 7.1875 17.75 5.75 20.25C4.25 22.75 3.5 25.5 3.5 28.5ZM21.5 19.5V30V19.5V30C21.4375 30.9375 20.9375 31.4375 20 31.5C19.0625 31.4375 18.5625 30.9375 18.5 30V19.5C18.5625 18.5625 19.0625 18.0625 20 18C20.9375 18.0625 21.4375 18.5625 21.5 19.5Z" fill="#FAFAFA"/>
</svg>
