<svg width="42" height="48" viewBox="0 0 42 48" fill="none" xmlns="http://www.w3.org/2000/svg">
<path d="M21 3C18.4375 3.0625 16.3125 3.9375 14.625 5.625C12.9375 7.3125 12.0625 9.4375 12 12V18H30V12C29.9375 9.4375 29.0625 7.3125 27.375 5.625C25.6875 3.9375 23.5625 3.0625 21 3ZM9 12C9.0625 8.625 10.2188 5.78125 12.4688 3.46875C14.7812 1.21875 17.625 0.0625 21 0C24.375 0.0625 27.2188 1.21875 29.5312 3.46875C31.7812 5.78125 32.9375 8.625 33 12V18H34.5C36.625 18.0625 38.4062 18.7812 39.8438 20.1562C41.2188 21.5938 41.9375 23.375 42 25.5V40.5C41.9375 42.625 41.2188 44.4062 39.8438 45.8438C38.4062 47.2188 36.625 47.9375 34.5 48H7.5C5.375 47.9375 3.59375 47.2188 2.15625 45.8438C0.78125 44.4062 0.0625 42.625 0 40.5V25.5C0.0625 23.375 0.78125 21.5938 2.15625 20.1562C3.59375 18.7812 5.375 18.0625 7.5 18H9V12V18V12ZM7.5 21C6.25 21.0625 5.1875 21.5 4.3125 22.3125C3.5 23.1875 3.0625 24.25 3 25.5V40.5C3.0625 41.75 3.5 42.8125 4.3125 43.6875C5.1875 44.5 6.25 44.9375 7.5 45H34.5C35.75 44.9375 36.8125 44.5 37.6875 43.6875C38.5 42.8125 38.9375 41.75 39 40.5V25.5C38.9375 24.25 38.5 23.1875 37.6875 22.3125C36.8125 21.5 35.75 21.0625 34.5 21H7.5H34.5H7.5ZM22.5 29.25V36.75C22.4375 37.6875 21.9375 38.1875 21 38.25C20.0625 38.1875 19.5625 37.6875 19.5 36.75V29.25C19.5625 28.3125 20.0625 27.8125 21 27.75C21.9375 27.8125 22.4375 28.3125 22.5 29.25Z" fill="#FAFAFA"/>
</svg>
