<svg width="46" height="50" viewBox="0 0 46 50" fill="none" xmlns="http://www.w3.org/2000/svg">
<path d="M21.875 4.46875L5.28125 11.5C4.15625 12.0625 3.5625 12.9375 3.5 14.125C3.5 17.125 4 20.625 5 24.625C6.0625 28.5625 7.90625 32.4062 10.5312 36.1562C13.2188 39.9062 16.9688 43 21.7812 45.4375C22.5938 45.8125 23.4062 45.8125 24.2188 45.4375C29.0312 43.0625 32.75 39.9688 35.375 36.1562C38.0625 32.4062 39.9375 28.5625 41 24.625C42 20.625 42.5 17.125 42.5 14.125C42.4375 12.9375 41.8438 12.0625 40.7188 11.5L24.2188 4.46875C23.4062 4.15625 22.625 4.15625 21.875 4.46875ZM25.3438 1.75L41.9375 8.78125C43 9.21875 43.8438 9.90625 44.4688 10.8438C45.1562 11.7812 45.5 12.875 45.5 14.125C45.5625 17.3125 45.0312 21.0625 43.9062 25.375C42.7812 29.6875 40.75 33.875 37.8125 37.9375C34.9375 42.0625 30.8125 45.4688 25.4375 48.1562C23.8125 48.9062 22.1875 48.9062 20.5625 48.1562C15.1875 45.4688 11.0625 42.0625 8.1875 37.9375C5.25 33.875 3.21875 29.6875 2.09375 25.375C0.96875 21.0625 0.4375 17.3125 0.5 14.125C0.5 12.875 0.84375 11.7812 1.53125 10.8438C2.15625 9.90625 3 9.21875 4.0625 8.78125L20.6562 1.75C22.2188 1.125 23.7812 1.125 25.3438 1.75ZM33.0312 20.0312L21.0312 32.0312C20.3438 32.6562 19.6562 32.6562 18.9688 32.0312L12.9688 26.0312C12.3438 25.3438 12.3438 24.6562 12.9688 23.9688C13.6562 23.3438 14.3438 23.3438 15.0312 23.9688L20 28.8438L30.9688 17.9688C31.6562 17.3438 32.3438 17.3438 33.0312 17.9688C33.6562 18.6562 33.6562 19.3438 33.0312 20.0312Z" fill="#39D5F7"/>
</svg>
