<svg width="48" height="43" viewBox="0 0 48 43" fill="none" xmlns="http://www.w3.org/2000/svg">
<path d="M27.0938 5.6875L26.625 7.1875C25.5625 11.0625 23.3125 14.125 19.875 16.375L19.5938 16.5625C18.8438 17 18.2188 17.5938 17.7188 18.3438C17.0938 19.0312 16.4062 19.1562 15.6562 18.7188C14.9062 18.1562 14.7812 17.4688 15.2812 16.6562C15.9688 15.5938 16.875 14.7188 18 14.0312L18.2812 13.8438C21.0312 12.0313 22.8438 9.5625 23.7188 6.4375L24.1875 4.84375C24.625 3.40625 25.4375 2.34375 26.625 1.65625C27.875 0.96875 29.2188 0.8125 30.6562 1.1875C32.0312 1.625 33.0938 2.4375 33.8438 3.625C34.5312 4.875 34.6875 6.21875 34.3125 7.65625L33.9375 9.15625C33.5625 10.4688 33.0625 11.75 32.4375 13H42C43.6875 13.0625 45.0938 13.6562 46.2188 14.7812C47.3438 15.9062 47.9375 17.3125 48 19C47.9375 20.6875 47.3438 22.0938 46.2188 23.2188C46.4062 23.7812 46.5 24.375 46.5 25C46.4375 26.8125 45.7812 28.2812 44.5312 29.4062C44.8438 30.1562 45 30.9375 45 31.75C44.875 34.0625 43.875 35.7812 42 36.9062V37C41.9375 38.6875 41.3438 40.0938 40.2188 41.2188C39.0938 42.3438 37.6875 42.9375 36 43H27.5625C25.5 43 23.5625 42.4062 21.75 41.2188L18.1875 38.7812C17 37.9688 16 37 15.1875 35.875C14.8125 35.0625 14.9688 34.375 15.6562 33.8125C16.4688 33.375 17.1562 33.5 17.7188 34.1875C18.2812 35.0625 19 35.7812 19.875 36.3438L23.4375 38.7812C24.6875 39.5938 26.0938 40 27.6562 40H36C36.875 40 37.5938 39.7188 38.1562 39.1562C38.7188 38.5938 39 37.875 39 37C39 36.75 38.9688 36.5312 38.9062 36.3438C38.8438 35.5312 39.1875 34.9375 39.9375 34.5625C41.25 34.125 41.9375 33.1875 42 31.75C42 31.0625 41.7812 30.4688 41.3438 29.9688C41.0938 29.5938 41 29.1562 41.0625 28.6562C41.1875 28.2188 41.4688 27.9062 41.9062 27.7188C42.9062 27.1562 43.4375 26.25 43.5 25C43.5 24.4375 43.375 23.9375 43.125 23.5C42.75 22.75 42.9062 22.0938 43.5938 21.5312C44.4688 20.9688 44.9375 20.125 45 19C45 18.125 44.7188 17.4062 44.1562 16.8438C43.5938 16.2812 42.875 16 42 16H29.9062C29.3438 16 28.9062 15.75 28.5938 15.25C28.3438 14.75 28.375 14.25 28.6875 13.75C29.6875 12.0625 30.4688 10.2812 31.0312 8.40625L31.4062 6.8125C31.6562 5.5 31.125 4.59375 29.8125 4.09375C28.5 3.84375 27.5938 4.375 27.0938 5.6875ZM3 19V40H9V19H3H9H3ZM0 19C0 18.125 0.28125 17.4062 0.84375 16.8438C1.40625 16.2812 2.125 16 3 16H9C9.875 16 10.5938 16.2812 11.1562 16.8438C11.7188 17.4062 12 18.125 12 19V40C12 40.875 11.7188 41.5938 11.1562 42.1562C10.5938 42.7188 9.875 43 9 43H3C2.125 43 1.40625 42.7188 0.84375 42.1562C0.28125 41.5938 0 40.875 0 40V19V40V19Z" fill="#FAFAFA"/>
</svg>
